<svg xmlns="http://www.w3.org/2000/svg" viewBox="0 0 230.58 315.28">
    <title>ball</title>
    <path fill="white" stroke="black" stroke-width="3px"
          d="M 115 200 Z Z M 80.5 191.14 L 91.64 225.41 A 5.92 5.92 0 0 0 97.27 229.5 H 133.27 A 5.91 5.91 0 0 0 138.9 225.41 L 150.04 191.14 A 5.93 5.93 0 0 0 147.89 184.52 L 118.74 163.34 A 5.91 5.91 0 0 0 111.74 163.34 L 82.66 184.52 A 5.92 5.92 0 0 0 80.5 191.14 Z M 38.18 141 L 48.42 172.53 A 7.91 7.91 0 0 1 45.55 181.37 L 18.73 200.81 A 7.88 7.88 0 0 1 9.44 200.81 L 3.37 196.4 A 7.87 7.87 0 0 1 0.13 189.4 A 114.77 114.77 0 0 1 16.46 139.28 A 7.87 7.87 0 0 1 23.19 135.52 H 30.66 A 7.91 7.91 0 0 1 38.18 141 Z M 78.18 244.28 L 83.97 236.28 A 7.85 7.85 0 0 0 85.09 229.2 L 73.34 192.9 A 7.88 7.88 0 0 0 68.26 187.83 L 58.88 184.78 A 7.88 7.88 0 0 0 51.8 185.9 L 23 206.85 A 7.91 7.91 0 0 0 20.13 215.69 L 28.65 242 A 7.9 7.9 0 0 0 36.16 247.46 H 71.81 A 7.91 7.91 0 0 0 78.21 244.24 Z M 136.76 290 L 147.85 255.86 A 7.88 7.88 0 0 0 146.73 248.77 L 140.88 240.72 A 7.91 7.91 0 0 0 134.48 237.46 H 96.09 A 7.88 7.88 0 0 0 89.7 240.72 L 83.84 248.77 A 7.94 7.94 0 0 0 82.72 255.86 L 93.81 290 A 7.91 7.91 0 0 0 101.33 295.46 H 129.25 A 7.9 7.9 0 0 0 136.76 290 Z M 118.45 141.13 V 151 A 7.9 7.9 0 0 0 121.7 157.39 L 152.56 179.81 A 7.91 7.91 0 0 0 159.65 180.94 L 169.03 177.89 A 7.88 7.88 0 0 0 174.1 172.81 L 185.1 138.91 A 7.91 7.91 0 0 0 182.23 130.07 L 159.82 113.79 A 7.93 7.93 0 0 0 150.52 113.79 L 121.7 134.73 A 7.93 7.93 0 0 0 118.45 141.13 Z M 230.45 189.38 A 114.9 114.9 0 0 0 214.12 139.26 A 7.88 7.88 0 0 0 207.38 135.5 H 199.91 A 7.9 7.9 0 0 0 192.4 141 L 182.15 172.53 A 7.92 7.92 0 0 0 185.02 181.37 L 211.85 200.85 A 7.88 7.88 0 0 0 221.14 200.85 L 227.21 196.44 A 7.91 7.91 0 0 0 230.45 189.38 Z M 201.93 242 L 210.49 215.65 A 7.89 7.89 0 0 0 207.62 206.82 L 178.78 185.82 A 7.9 7.9 0 0 0 171.69 184.7 L 162.31 187.75 A 7.89 7.89 0 0 0 157.24 192.82 L 145.45 229.1 A 7.91 7.91 0 0 0 146.57 236.18 L 152.37 244.18 A 7.89 7.89 0 0 0 158.76 247.44 H 194.41 A 7.9 7.9 0 0 0 201.93 242 Z M 44.77 138.9 L 55.77 172.8 A 7.9 7.9 0 0 0 60.84 177.88 L 70.22 180.93 A 7.91 7.91 0 0 0 77.31 179.8 L 108.17 157.38 A 7.88 7.88 0 0 0 111.43 150.99 V 141.13 A 7.91 7.91 0 0 0 108.17 134.73 L 79.35 113.78 A 7.91 7.91 0 0 0 70.06 113.78 L 47.64 130.06 A 7.92 7.92 0 0 0 44.77 138.9 Z M 194.41 254.5 H 161.26 A 7.9 7.9 0 0 0 153.74 259.96 L 143.5 291.49 A 7.91 7.91 0 0 0 146.37 300.33 L 152.43 304.73 A 7.89 7.89 0 0 0 160.12 305.64 A 116.08 116.08 0 0 0 202.72 274.64 A 7.89 7.89 0 0 0 204.23 267.05 L 201.93 259.98 A 7.9 7.9 0 0 0 194.41 254.5 Z M 78.14 304.73 L 84.21 300.33 A 7.91 7.91 0 0 0 87.08 291.49 L 76.83 260 A 7.89 7.89 0 0 0 69.32 254.54 H 36.16 A 7.9 7.9 0 0 0 28.65 260 L 26.35 267 A 7.89 7.89 0 0 0 27.86 274.59 A 116.13 116.13 0 0 0 70.45 305.59 A 7.89 7.89 0 0 0 78.14 304.73 Z M 147.3 92 A 7.87 7.87 0 0 0 141.64 86.75 A 115.72 115.72 0 0 0 88.94 86.75 A 7.87 7.87 0 0 0 83.27 92 L 81 99.13 A 7.89 7.89 0 0 0 83.82 108 L 110.64 127.49 A 7.91 7.91 0 0 0 119.93 127.49 L 146.75 108 A 7.91 7.91 0 0 0 149.63 99.17 Z M 227.17 205.51 L 220.11 210.63 A 2.18 2.18 0 0 0 219.34 211.7 L 206.76 250.4 A 2.13 2.13 0 0 0 206.76 251.72 L 209.45 259.98 A 2.14 2.14 0 0 0 213.3 260.46 A 114.84 114.84 0 0 0 230.57 207.38 A 2.14 2.14 0 0 0 227.17 205.49 Z M 144 308 L 136.93 302.87 A 2.13 2.13 0 0 0 135.67 302.46 H 94.94 A 2.08 2.08 0 0 0 93.69 302.87 L 86.62 308 A 2.15 2.15 0 0 0 87.35 311.82 A 115.84 115.84 0 0 0 143.23 311.82 A 2.15 2.15 0 0 0 144 308 Z M 23.81 250.38 L 11.24 211.68 A 2.14 2.14 0 0 0 10.46 210.61 L 3.46 205.49 A 2.14 2.14 0 0 0 0 207.36 A 114.73 114.73 0 0 0 17.27 260.44 A 2.14 2.14 0 0 0 21.12 259.96 L 23.8 251.7 A 2.13 2.13 0 0 0 23.81 250.38 Z M 155.81 94.81 L 158.5 103.11 A 2.14 2.14 0 0 0 159.28 104.18 L 192.2 128.09 A 2.08 2.08 0 0 0 193.45 128.5 H 202.11 A 2.15 2.15 0 0 0 203.75 124.98 A 116 116 0 0 0 158.64 92.16 A 2.14 2.14 0 0 0 155.78 94.81 Z M 38.41 128.09 L 71.33 104.18 A 2.18 2.18 0 0 0 72.1 103.11 L 74.8 94.81 A 2.15 2.15 0 0 0 72 92.16 A 116.06 116.06 0 0 0 26.85 125 A 2.15 2.15 0 0 0 28.5 128.52 H 37.15 A 2.13 2.13 0 0 0 38.41 128.09 Z"/>
</svg>